<?xml version="1.0"?><svg version="1.2" baseProfile="tiny-ps" viewBox="0 0 300 300" xmlns="http://www.w3.org/2000/svg" xmlns:xlink="http://www.w3.org/1999/xlink"><title>22LUSH LTD</title><g><g fill="#fefefe" transform="matrix(.1 0 0 -.1 0 300)"><path d="M0 1500V0h3000v3000H0V1500z"/></g><g fill="#d2cbcf" transform="matrix(.1 0 0 -.1 0 300)"><path d="M1323 2567c-174-341-198-387-203-387-3 0-77 115-165 255l-159 255h-13c-8 0-59-32-114-71l-99-70 6-12c18-30 104-153 320-455l103-143-11-30-10-30-13 18c-7 10-58 92-115 183-56 91-120 193-142 228l-40 62h-15c-16 0-162-99-183-125l-13-15 48-73c27-39 79-114 118-166 38-52 108-148 155-214l85-120-131-264c-73-145-132-269-132-277v-13l63-27c34-14 65-26 68-26 4 0 31 42 61 93 30 50 85 145 123 210 38 64 73 117 76 117 4 0 76-95 160-210l152-210 26 16c54 34 91 65 91 76 0 15-50 99-197 335-62 100-113 189-113 197 0 7 8 24 18 36l18 23 80-109c44-60 115-157 158-216s82-111 88-114l10-6 55 38c30 21 57 44 60 51l5 13-57 92c-167 270-275 451-275 460 0 7 40 79 89 162s100 174 115 203c14 29 51 93 81 143 30 49 64 108 75 130l20 40-119 60-120 60-88-173zm490-28c10-270 29-700 57-1298 5-112 11-205 13-207 1-2 32-6 69-10l65-6 7 83c4 46 11 158 17 249 9 154 15 253 54 920 8 140 17 294 21 341l6 86-8 6c-5 2-76 8-158 12l-149 7 6-183zm502-1c-5-18-41-922-49-1238l-1-35 55-3 55-3 17 13 16 13 16 155c9 85 23 216 31 290 17 158 39 359 60 555 8 77 17 165 21 196l6 56-23 6c-13 4-64 7-112 7h-88l-4-12zM558 840l-38-7-19-17c-11-10-25-31-31-47l-12-29 6-15 5-15h80l13 28 13 27h50l3-23 3-22-33-27c-18-15-57-50-85-79l-53-51v-63h280v90H607l47 32 48 31 19 31 19 31v60l-18 21c-32 40-97 57-164 44zm330 1c-20-4-48-15-61-24l-25-16-12-37-12-36 13-9c8-5 28-9 46-9h32l13 27 13 28 18 3 18 4 14-12c8-7 15-18 15-25v-13l-71-57-71-57-19-32c-10-17-19-41-19-54v-23l143 3 142 3v80l-65 5-65 5 37 23c20 13 49 37 63 53l25 31v80l-29 29-29 29h-25c-14 0-31 2-39 4-7 2-29 0-50-3zm1042-2-45-8-27-31-28-30v-67l21-27 20-26 57-15c31-9 67-20 80-26l23-9-6-10-6-10h-68l-11 20-11 20h-99v-56l15-22 16-22 56-16 56-16 44 6c84 11 123 50 123 122v35l-24 24-24 24-43 10c-75 19-92 26-97 39l-4 12h70l6-15 5-15h101v21c0 49-41 82-115 91l-40 5-45-8zm-810-169V500h280v90h-170v250h-110V670zm322 34 3-136 32-28 32-29 43-12 43-12 55 12 55 11 25 18 25 19 12 34 12 34v113l1 112h-120V615l-8-12c-4-6-18-14-32-18l-25-6-20 15-20 14-3 116-4 116h-110l4-136zm748-34V500h110v130h110V500h120v340h-120V720h-110v120h-110V670zM850 295v-45h60v20l-22 1h-23l25 11 25 11-25 7-25 8 23 1 22 1v30h-60v-45zm110 30c0-8 5-15 10-15h10v-60h30v58l16 6 15 6-6 10-6 10h-69v-15zm124 1c-3-8-4-27-2-43l3-28 33-3 32-3v21l-22 1-23 1 18 5c9 2 17 9 17 14s-8 9-17 10h-18l23 10 23 9-6 10c-3 5-17 10-31 10h-25l-5-14zm122 7c-3-3-6-24-6-45v-38h60v10c0 6-7 10-15 10h-15v29c0 30-12 46-24 34zm111 0c-4-3-7-24-7-45v-38h70v20l-22 1-23 1 18 5c9 2 17 9 17 14s-8 9-17 10h-18l23 10 23 9-6 10c-7 11-48 14-58 3zm113-37v-46h60v10c0 6-6 10-14 10h-15l-3 32-3 31-12 5-13 4v-46zm130 25c-5-11-14-30-19-44l-9-24h44c24 0 44 2 44 3 0 14-34 84-41 84-4 0-13-9-19-19zm187 12c-4-3-7-24-7-45v-38h15c8 0 15 5 15 10 0 6 7 10 15 10h14l11 19 10 20-16 15c-16 16-46 21-57 9zm117-7c-3-8-4-27-2-43l3-28 33-3 32-3v21l-22 1-23 1 18 5c9 2 17 9 17 14s-8 9-17 10h-18l23 10 23 9-6 10c-3 5-17 10-31 10h-25l-5-14zm122 7c-3-3-6-24-6-45v-38h60v10c0 6-7 10-15 10h-15v29c0 30-12 46-24 34zm111 0c-4-3-7-24-7-45v-38h70v20l-22 1-23 1 18 5c9 2 17 9 17 14s-8 9-17 10h-18l23 10 23 9-6 10c-7 11-48 14-58 3z"/></g><g fill="#9d8e97" transform="matrix(.1 0 0 -.1 0 300)"><path d="M1317 2548c-52-101-116-225-141-276l-47-93-11 3c-6 2-82 117-167 256-86 138-160 251-164 251-11 1-182-116-197-134l-12-15 42-62c24-35 113-161 199-280 86-120 163-229 171-242l14-24-13-28-13-29-15 20c-8 11-78 121-155 245s-142 227-144 229c-6 6-55-23-131-78l-63-45v-16c0-19 33-68 247-364l151-210-134-268c-74-147-134-270-134-273 0-7 130-69 134-64 2 2 49 81 104 176 56 94 113 190 127 213l26 42 87-119c48-65 116-157 151-206 35-48 68-90 73-93l10-6 54 37c30 21 54 41 54 45 0 8-139 242-243 408l-78 123 18 29c20 34 33 37 50 13 6-10 41-58 78-108 36-49 102-141 146-202 44-62 84-113 87-113 4 0 33 20 65 45l57 46-11 22c-7 12-76 126-154 252-78 127-149 244-158 260l-15 30 84 143c46 79 93 162 106 185 12 23 60 107 106 186l83 144-4 11c-4 9-206 116-220 116-3 0-48-82-100-182zm497 40c3-73 20-450 37-838s34-708 37-712c4-3 34-8 67-9l60-3 7 100c14 196 79 1292 85 1431l6 141-44 6c-24 3-93 8-153 11l-109 6 7-133zm502-84c-3-27-10-186-16-354s-15-414-20-547c-6-133-10-263-10-288v-45h65c36 0 65 1 65 3 5 25 137 1263 135 1265-1 2-50 6-108 9l-105 6-6-49zM522 824c-35-18-45-32-56-76l-6-28h87l11 25 12 25h58l6-16c10-27 8-31-73-98l-80-67-11-34-11-35 6-10 6-10h269v90H609l53 43 53 43 13 27 13 28-6 28-6 28-25 24-25 23-62 3-62 4-33-17zm332 6c-12-4-31-21-43-36l-21-27v-47h89l3 23 3 22h70l3-21 3-22-58-48c-31-27-70-62-85-78l-28-28v-68h270v90H927l51 37c54 40 82 78 82 112 0 33-20 67-50 84l-28 17-54-1c-29 0-63-4-74-9zm266-160V500h280v90h-170v250h-110V670zm320 52V605l18-34 19-34 34-19 34-18h116l33 14 33 14 21 27 22 28v257h-100V635l-13-25-12-25-29-3-28-3-19 17-19 17v227h-110V722zm452 103-33-14-15-36-14-35 6-24c3-13 16-34 29-46l24-22 67-19c74-21 79-23 69-38l-6-11h-78l-6 20-6 20h-99v-23c0-12 7-33 16-46l17-23 33-14 33-14h122l29 15c16 8 36 25 44 37l16 22v36l-1 35-12 16c-17 23-69 47-115 55-21 3-45 10-52 14l-13 8 6 16 6 16h51l12-20 13-20h95v47l-22 20c-13 11-33 26-45 32l-22 11h-58l-58-1-33-14zm298-155V500h110v130h120V500h100v340h-100V720h-120v120h-110V670zM850 290v-40h60v20l-22 1-23 1 18 5c21 5 23 23 2 23-23 0-18 18 8 23l22 4-32 2-33 1v-40zm123 26 17-13v-53h20v60h10c6 0 10 5 10 10v10h-37l-38-1 18-13zm117-26v-40h50v9c0 5-8 12-17 14l-18 5 18 1c21 1 23 21 2 21s-19 18 3 23l17 5-27 1-28 1v-40zm112 3 3-38 28-3 27-3v21h-40v60h-21l3-37zm118-3v-40h50v20h-34l20 15 19 14-17 1c-10 0-18 4-18 9s8 12 18 14l17 5-27 1-28 1v-40zm110 0v-40h60v20h-40v60h-20v-40zm126 16c-3-13-8-30-11-38l-5-13h40c22 0 40 1 40 2s-8 18-17 38l-17 35h-24l-6-24zm194-15v-41h10c6 0 10 4 10 9s9 13 21 16l20 7-3 21-3 22-27 3-28 3v-40zm40 8c0-5-4-9-10-9-5 0-10 7-10 16v15l10-6c6-3 10-10 10-16zm80-9v-40h50v9c0 5-8 12-17 14l-18 5 18 1c21 1 23 21 2 21s-19 18 3 23l17 5-27 1-28 1v-40zm112 3 3-38 28-3 27-3v21h-40v60h-21l3-37zm118-3v-40h50v20h-34l20 15 19 14-17 1c-10 0-18 4-18 9s8 12 18 14l17 5-27 1-28 1v-40z"/></g><g fill="#745e6a" transform="matrix(.1 0 0 -.1 0 300)"><path d="M1269 2450c-78-154-145-280-148-280-7 0-25 28-179 275-68 110-130 210-138 223l-15 22-20-11c-12-6-59-38-105-71l-84-60 11-20c14-25 114-169 278-397l133-184-7-33-6-34h-10c-10 0-68 87-174 260-32 52-78 126-102 163l-45 68-26-17c-93-60-162-110-162-120 0-16 49-90 203-301 79-109 156-216 170-239l27-41-132-264c-73-145-134-266-136-269-3-7 104-60 121-60h12l125 210c68 116 127 210 131 210 3 0 70-87 147-192 77-106 147-202 155-212l14-19 45 31c24 17 49 36 55 44l12 13-88 145c-48 80-120 197-159 260-40 63-72 119-72 125 0 5 11 23 23 39l24 29 40-54c22-30 88-121 148-204 59-82 116-160 125-172l18-23 62 46 62 45-17 25c-35 54-316 516-321 527l-4 12 43 75c24 41 74 129 111 195 38 66 104 181 147 256 44 75 79 139 79 142 0 6-213 117-224 117-2 0-68-126-147-280zm547 262c-3-5-1-101 4-213 14-285 37-832 51-1164l12-280 15-13 16-12h95l6 43c3 23 16 233 30 467s32 533 40 665 18 297 21 366l7 127-109 6c-60 4-126 9-146 11l-37 5-5-8zm500-259c-4-54-13-291-21-528-8-236-17-481-20-542l-6-113h131v8c0 4 16 151 35 327 69 630 99 925 94 929-2 2-50 7-105 11l-102 7-6-99zM534 826c-37-16-64-51-64-83v-23h78l5 19c2 10 13 23 23 29l19 10 23-9 22-8v-39l-72-63c-91-80-97-88-98-121v-28h270v70H600v8c0 4 20 20 45 35 25 16 54 40 65 54l20 26v34c0 19-5 43-11 55l-11 20-33 14-34 14h-38c-21-1-52-7-69-14zm320 0c-37-16-64-51-64-83v-23h79l6 21 7 20 21 8 22 9 18-10 17-9v-39l-37-32c-21-18-59-54-85-79l-48-46v-53h270v70H928l4 9c2 5 23 24 48 43l45 33 18 38 19 37-9 28-10 27-33 23-33 22h-46l-46-1-31-13zm1045-2-36-15-12-23-12-22 3-39 3-39 33-23 33-22 55-11 55-12 6-15 6-15-14-9c-8-5-24-9-36-9h-23l-20 20-20 20h-90v-10c0-21 25-61 48-76l25-16 56-5 56-5 43 11 43 12 19 32 20 32v57l-28 28-28 28-60 12c-32 7-65 17-72 22l-12 11 11 13 11 14h47l15-15 15-15h91v13c0 7-7 23-16 36l-17 23-33 14-33 14-48-1h-48l-36-15zm-779-154V510h281l-3 38-3 37-82 3-83 3v239h-110V670zm321 41 4-120 21-28c11-15 36-36 55-46l34-18 66 4 65 4 28 18c15 10 34 31 42 46l14 28v231h-100V624l-16-22-15-22h-68l-11 19-10 20v211h-112l3-119zm749-41V510h110v120h120V510h100v320h-99l-3-57-3-58-57-3-58-3v121h-110V670zM852 293l3-38 23-3 22-3v10c0 6-7 11-15 11-21 0-19 18 3 23l17 5-17 1c-10 0-18 5-18 10s8 12 18 14l17 5-28 1-28 1 3-37zm121 30 17-4 1-37 2-37 4 30 4 30 17 13 16 12-40-1-39-1 18-5zm117-33v-40h50v10c0 6-7 10-15 10-21 0-19 18 3 23l17 5-17 1c-10 0-18 5-18 10s8 12 18 14l17 5-27 1-28 1v-40zm122 3-2-43h50v20h-39l-4 33-4 32-1-42zm108-3v-40h50v9c0 5-10 12-22 14l-23 4 25 9 25 8-25 7-25 6 25 11 25 11h-27l-28 1v-40zm112 3 3-38 23-3 22-3v10c0 6-7 11-15 11h-15v60h-21l3-37zm123 0c-15-36-12-60 5-33l9 15 21-13 20-12v8c0 20-23 72-31 72-5 0-16-16-24-37zm35-3c0-5-4-10-10-10-5 0-10 5-10 10 0 6 5 10 10 10 6 0 10-4 10-10zm161-2 1-43 5 13c3 7 16 18 30 23l24 9-3 18-3 17-28 3-27 3 1-43zm39 17c0-8-4-15-9-15-13 0-22 16-14 24 11 11 23 6 23-9zm80-15v-40h50v10c0 6-7 10-15 10-21 0-19 18 3 23l17 5-17 1c-10 0-18 5-18 10s8 12 18 14l17 5-27 1-28 1v-40zm122 3-2-43h50v20h-39l-4 33-4 32-1-42zm108-3v-40h50v9c0 5-10 12-22 14l-23 4 25 9 25 8-25 7-25 6 25 11 25 11h-27l-28 1v-40z"/></g><g fill="#5c2b49" transform="matrix(.1 0 0 -.1 0 300)"><path d="m1274 2451-142-276h-24l-157 252c-86 138-161 252-167 252-12 1-149-91-178-119l-18-18 13-23c12-24 81-123 293-418l118-164-17-36-17-36-15 20c-8 11-80 124-159 252l-146 232-26-17c-62-39-162-114-162-122s81-124 275-394l129-178-136-273-136-272 51-23c29-12 57-24 64-27l12-5 24 39c14 21 71 116 127 211l103 173 11-4c6-2 75-91 153-198s148-198 156-203l14-9 47 32c25 18 46 37 46 42 0 12-113 203-238 403l-81 128 22 34c12 19 27 34 32 34 6-1 35-35 66-78 31-42 102-141 159-219 57-79 106-143 111-143 9 0 109 78 109 86 0 3-39 69-87 147s-122 199-165 270c-43 70-78 133-78 139s44 89 99 182c174 301 281 490 278 492-1 1-51 26-112 57l-110 55-141-277zm546 182c0-43 5-172 10-288 5-115 16-367 25-560 20-462 34-737 37-740 2-2 29-6 61-10l57-7v18c0 11 5 78 10 149 6 72 17 247 25 390s21 370 30 505c8 135 19 325 25 424 6 98 9 180 8 181-2 1-67 6-145 9l-143 7v-78zm506-101c-6-9-13-193-36-837-6-165-12-328-15-362l-4-63h42c23 0 51 3 63 6l21 6 12 106c6 59 15 152 21 207 5 55 14 136 20 180 5 44 19 168 30 275 12 107 28 257 36 333l16 139-7 6c-4 4-48 9-100 10l-93 4-6-10zM543 827c-43-16-61-36-69-75l-6-32h82v40l26 12 26 12 16-11 17-10 3-22 3-21-43-38c-24-20-62-56-85-78l-43-41v-53h260v70H600v8c0 4 23 23 49 42 75 53 95 98 70 154l-12 25-39 15c-45 19-80 19-125 3zm311-6-41-19-12-32c-6-18-11-37-11-41v-9h78l6 24 6 25 20 6c26 8 57-2 64-21l6-15-10-19c-5-10-39-41-75-70l-66-52-14-29c-8-15-15-35-15-44v-15h270v70H920v8c0 4 14 16 31 26 16 10 46 33 65 52l34 35v35c0 19-5 44-11 56l-11 20-33 14c-19 8-49 14-67 14h-33l-41-19zm1049 0-41-19-11-20c-6-12-11-33-11-49v-29l15-21 15-21 47-16c25-9 54-16 63-16 8 0 26-7 38-16l23-16-12-14-11-14h-28c-39 0-60 9-60 26v14h-101l6-22c4-13 19-35 34-49l28-26 54-7 54-6 38 9 39 9 24 23 25 23-3 51-3 50-35 17c-19 10-61 25-93 33l-58 16 3 17 3 17 38 3 37 3 6-15 6-16h49c55 0 54-1 37 35l-12 26-29 16-29 15-52 4-51 5-42-20zm-773-151V510h260v69l-82 3-83 3-3 123-3 122h-89V670zm320 45V599l15-29 15-30 33-17 32-17h130l32 19 33 19 15 32 15 32v222h-100V610l-20-20-20-20h-19c-10 0-29 9-42 19l-24 19-3 111-4 111h-88V715zm750-45V510h90v120h130V510h100v320h-100V709l-62 3-63 3-3 58-3 57h-89V670zM861 293l1-38 5 17c2 9 12 19 21 21l17 5-17 1c-10 0-18 5-18 10s8 12 18 14l17 5-22 1-23 1 1-37zm116 29c6-4 13-21 16-37l4-30 2 32 1 32 18 4 17 5-35 1-35 1 12-8zm113-27v-35h21l-6 10-6 10 23 9 23 10h-22l-23 1v9c0 5 10 12 23 14l22 4-27 2-28 1v-35zm122 3-2-38 23 1 22 1-17 5-17 4-4 32-4 32-1-37zm108-3v-35h19l-5 14-5 14 18 5 18 5-17 1c-26 2-22 19 5 24l22 4-27 2-28 1v-35zm122 3-2-38 23 1 22 1-17 5-17 4-4 32-4 32-1-37zm124 16c-4-9-4-19-1-22s5 0 5 7v12l10-6c6-3 10-10 10-16v-9h-20c-11 0-20-3-20-7 0-5 13-8 28-8h29l-10 33c-11 35-22 41-31 16zm184-21v-38l8 11c4 7 16 14 27 17l20 5-22 1-23 1v30h13c7 0 19-6 27-12l14-13-13 18-13 17h-38v-37zm120 2v-35h21l-6 10-6 10 23 9 23 10h-22l-23 1v9c0 5 10 12 23 14l22 4-27 2-28 1v-35zm122 3-2-38 23 1 22 1-17 5-17 4-4 32-4 32-1-37zm108-3v-35h19l-5 14-5 14 18 5 18 5-17 1c-26 2-22 19 5 24l22 4-27 2-28 1v-35z"/></g><g fill="#3c3a3a" transform="matrix(.1 0 0 -.1 0 300)"><path d="M543 827c-43-16-61-36-69-75l-6-32h82v40l24 12 25 11 15-6c8-3 20-15 26-27l11-21-48-42c-26-23-67-61-90-83l-43-41v-53h260v70H600v8c0 4 23 23 49 42 75 53 95 98 70 154l-12 25-39 15c-45 19-80 19-125 3zm311-6-41-19-12-32c-6-18-11-37-11-41v-9h78l6 24 6 25 20 6c26 8 57-2 64-21l6-15-10-19c-5-10-39-41-75-70l-66-52-14-29c-8-15-15-35-15-44v-15h270v70H920v8c0 4 14 16 31 26 16 10 46 33 65 52l34 35v35c0 19-4 43-10 53l-9 19-41 16c-52 21-85 20-136-3zm1049 0-43-20-11-25-12-24 7-36 7-36 22-15c12-8 51-22 87-31s68-21 72-27l7-11-11-13-10-13h-28c-39 0-60 9-60 26v14h-97l5-25 4-25 28-24 29-24 53-6 53-6 38 9 39 9 24 23 25 23-3 51-3 50-35 17c-19 10-61 25-93 33l-58 16 3 17 3 17 38 3 37 3 6-15 6-16h49c55 0 54-1 37 35l-12 26-29 16-29 15-52 4-51 5-42-20zm-773-151V510h260v69l-82 3-83 3-3 123-3 122h-89V670zm320 45V599l15-29 15-30 33-17 32-17h130l32 19 33 19 15 32 15 32v222h-100V610l-20-20-20-20h-19c-10 0-29 9-42 19l-24 19-3 111-4 111h-88V715zm750-45V510h90v120h130V510h100v320h-100V709l-62 3-63 3-3 58-3 57h-89V670zM861 293l1-38 5 17c2 9 12 19 21 21l17 5-17 1c-10 0-18 5-18 10s8 12 18 14l17 5-22 1-23 1 1-37zm116 29c6-4 13-21 16-37l4-30 2 32 1 32 18 4 17 5-35 1-35 1 12-8zm131 1c6-2 18-2 25 0l12 5h-50l13-5zm104-25-2-38 23 1 22 1-17 5-17 4-4 32-4 32-1-37zm108-3v-35h19l-5 14-5 14 18 5 18 5-17 1c-10 0-18 5-18 10s8 12 18 14l17 5-22 1-23 1v-35zm122 3-2-38 23 1 22 1-17 5-17 4-4 32-4 32-1-37zm124 16c-4-9-4-19-1-22s5 0 5 7v12l11-6 10-7-5-13-5-13 13-5 14-5-11 34c-11 37-21 43-31 18zm184-21v-38l9 14 9 13-5 19-5 19h14c8 0 20-6 28-12l14-13-13 18-13 17h-38v-37zm138 30c6-2 18-2 25 0l12 5h-50l13-5zm104-25-2-38 23 1 22 1-17 5-17 4-4 32-4 32-1-37zm108-3v-35h19l-5 14-5 14 18 5 18 5-17 1c-10 0-18 5-18 10s8 12 18 14l17 5-22 1-23 1v-35zm-1000-4v-9l20 5c11 3 20 7 20 9s-9 4-20 4-20-4-20-9zm780 0v-9l20 5c11 3 20 7 20 9s-9 4-20 4-20-4-20-9zm-330-22v-10l10 6c6 3 10 8 10 11 0 2-4 4-10 4-5 0-10-5-10-11z"/></g></g></svg>