<?xml version="1.0"?><svg version="1.2" baseProfile="tiny-ps" viewBox="0 0 300 300" xmlns="http://www.w3.org/2000/svg" xmlns:xlink="http://www.w3.org/1999/xlink"><title>Dayone.business</title><g><g fill="#d9d9d9" transform="matrix(.1 0 0 -.1 0 300)"><path d="M0 1500V0h3000v3000H0V1500z"/></g><g fill="#b6b6b6" transform="matrix(.1 0 0 -.1 0 300)"><path d="M0 1500V0h3000v3000H0V1500zm1816 318c-8-13-22-49-32-81l-18-57-26-32-26-31-57-5-57-4v14c0 27 23 83 47 116l24 32 40 20c21 11 39 22 39 25 0 9-66-17-101-40l-39-25-20-40-20-39v-38l-1-38-13 38c-8 21-22 47-31 57-21 23-78 43-102 37l-18-4 33-8 33-8 30-30 30-29-4-12-4-11-41-3-41-3-39 53-39 53 16 7c9 4 34 7 56 7l40 1 33-20c17-11 32-24 32-30 0-23 18-8 23 20l6 30 33 35 33 36 40 14 40 14 58 1h57l-14-22zM700 1540v-230h-88l-4 12-4 12-24-17-24-17h-81l-33 20-33 20-16 37-15 37 5 44 5 44 19 27 19 26 39 19 38 19 36-10c20-6 44-14 54-18l17-7v212h90v-230zm228 35 37-16 3 11 4 10h88v-270h-78l-4 11-4 12-31-17-32-16h-73l-29 17-29 18-21 43-21 43 6 42 7 41 25 33 25 33 32 9c46 13 53 13 95-4zm761-9c14-8 37-26 50-40l24-25 4-48 5-48-24-35-23-35-35-17-35-18h-96l-33 14-33 14-21 27c-12 15-24 42-28 60l-6 34 11 34c14 43 48 75 98 93l38 14 39-5c21-3 50-12 65-19zm352 7 41-16 14-33 14-33v-181h-90v170l-20 20c-26 26-48 25-77-2l-23-21v-167h-90v270h90v-30l37 20c46 24 52 24 104 3zm300 7 35-10 28-29 28-29 5-41 6-41h-203v-14c0-8 7-22 16-30l15-16h30c17 0 39 5 51 11l20 11 29-13 30-12-4-10c-2-6-15-20-30-31l-27-20-60-4-60-4-39 25-39 26-17 44-17 44 11 40 11 39 22 22c25 23 84 51 108 52 8 0 31-5 51-10zm-1117-70c20-38 40-70 44-70 4 1 21 32 39 70l32 70h102l-77-147c-42-82-92-176-111-210l-34-63h-99l47 94 46 93-61 111c-34 61-62 113-62 116s22 6 48 6h48l38-70zm1358-117 18-16v-44l-19-17-19-17-28 3-28 3-15 26-15 27 17 26 17 26h53l19-17zm-1005-168 2-39-12-8c-7-4-24-8-39-8h-28v101l37-3 37-3 3-40zm73 5v-40h50v80h20v-79l-19-11c-27-14-37-13-55 6l-16 15v69h20v-40zm170 33c-14-3-29-9-34-14l-10-9 32-11 32-11v-38l-26-6-25-7-11 11-11 11 28-2 28-2 4 11 4 12-31 10-30 11v14c0 21 10 27 44 26l31-2-25-4zm90-43v-50h-20v100h20v-50zm93 20c14-16 28-30 31-30 2 0 7 15 9 33l4 32 1-55 1-55-29 33c-16 17-32 32-35 32s-5-13-5-30v-30h-20v100h9c5 0 21-13 34-30zm150 23-33-4v-29l28-1 27-1-24-7c-14-4-26-12-29-19l-4-12h62v-20h-70v100l38-2 37-1-32-4zm115 0-28-4v-10c0-6 14-15 31-21l30-10-3-16c-2-8-10-20-20-25l-16-11-24 12-23 11 29-2 29-2 4 11 4 12-31 10c-32 12-37 21-18 40l12 12 26-1 25-2-27-4zm120 0-28-4v-29h19c10 0 24-7 31-15l12-15-12-15c-14-17-38-19-60-5l-15 11 29-3 29-3 4 11 4 12-31 10-30 11v14c0 21 10 27 44 26l31-2-27-4zM495 1490l-18-20 1-32 1-33 22-17 21-18h48l20 20 20 20v69l-22 15-22 16h-53l-18-20zm367 4-22-15v-65l13-17 12-17 30-6 31-6 21 19c12 10 25 29 28 43l6 26-21 27-21 27h-55l-22-16zm700 0-22-15v-69l20-20 20-20h48l23 18 22 19v63l-18 20-18 20h-53l-22-16zm694 20c-9-8-16-20-16-25v-9h110v13c0 7-5 18-12 25l-12 12h-55l-15-16zm-746-269v-15h50v30h-50v-15zm2-42 3-18 15-2c8-2 21 1 29 6l14 9-7 11-7 11h-50l3-17z"/></g><g fill="#8b8a8a" transform="matrix(.1 0 0 -.1 0 300)"><path d="M0 1500V0h3000v3000H0V1500zm1814 344 15-6-19-41c-10-23-26-63-35-89l-16-47-30-26-31-25h-98v25c0 52 84 165 122 165 6 0 9 3 6 6-10 9-81-32-111-63l-27-30-10-34c-6-18-10-46-10-61v-28h75l42-20 43-19 20-33 20-33v-90l-19-28c-25-38-50-54-102-66l-43-10-47 10-46 10-33 34-33 34-4 48-4 48 19 35 19 35 41 20 41 20 1 18c0 11-7 34-16 53l-17 35-28 14c-15 8-36 15-46 15l-18-1 31-13c32-14 64-50 64-72v-12l-29-7-30-6-19 10c-10 5-36 31-57 56l-38 47 14 9c8 5 37 9 66 9h51l30-25c35-29 42-31 42-9 0 9 9 32 21 51l21 34 39 19c61 31 140 47 173 34zM700 1535v-235h-90v32l-27-18-27-17h-84l-27 17c-14 9-35 31-45 49l-20 32v90l18 34 19 34 34 19 34 18h30c16 0 43-7 59-15 15-8 30-15 32-15s4 47 4 105v105h90v-235zm235 41 35-15v19h101l-3-137-3-138-47-3-48-3v31l-26-16-26-17h-89l-27 20c-15 10-35 35-44 54l-18 34v80l20 33 20 32 32 20 33 20h28c15 0 43-7 62-14zm1109 0 33-14 17-23 16-23v-217l-47 3-48 3-3 93-3 92-24 16-24 15-20-11c-11-6-25-19-31-30l-10-19v-161h-90v280h88l4-11 4-12 29 16c37 20 66 21 109 3zm323-3 35-16 19-31 19-31v-65h-200v-12c0-6 7-20 17-30l16-18h60l17 15 18 16 36-17 36-18-26-27-27-28-47-10-47-10-39 10-38 11-32 32-32 32-7 37-7 37 6 24c15 60 88 115 154 116h34l35-17zm-1139-65 40-72 32 72 33 72h109l-4-8c-1-5-50-99-108-210l-105-202h-52c-29 0-53 3-53 6s21 45 47 93l46 87-43 74c-23 41-53 94-67 118l-24 42h109l40-72zm1350-104 23-16-3-36-3-37-29-14-28-13-27 19-26 20-3 26-3 26 20 20c25 25 49 27 79 5zm-754-130c9-3 16-10 16-14v-7l-25 5-25 4v-11c0-6 11-16 24-21s27-14 31-20l7-11-12-14-12-15h-57l-6 10-6 10h61v10c0 5-11 12-24 16-39 9-42 43-6 57 8 3 16 6 17 6 1 1 8-2 17-5zm471-12c-3-4-15-7-25-7h-20v-10c-1-5 9-12 22-15l23-6v-49l-29-3-28-4-11 11-11 11h64v8c0 4-13 13-30 19l-30 11v33l22 8c23 8 63 3 53-7zm116 8h10l-5-9-6-9-19 5-19 5-7-11-7-12 32-10 31-11-3-22-3-21-29-3-28-4-11 11-11 11h64v8c0 4-13 13-30 19l-30 11v16c0 18 30 37 48 31 8-3 18-5 23-5zm-836-25c1-11 4-26 9-33l8-13-12-14-12-15h-78v101l43-3 42-3v-20zm77-12 3-38h40l3 38 3 37h19v-76l-12-12c-7-7-21-12-33-12s-26 5-33 12l-12 12v76h19l3-37zm258-13v-50h-20v100h20v-50zm95 23 24-28 1 28v27h20v-50c0-27-3-50-7-50-3 0-19 15-34 33l-28 32-1-32v-33h-20v100h10c6 0 22-12 35-27zm153 20-28-4v-29h40v-20h-40v-20h50v-20h-80v100l43-1 42-2-27-4zm-598 227-20-20v-57l20-18 19-17h52l19 17 20 18v57l-20 20-20 20h-50l-20-20zm-1060 0-20-20v-59l16-15c24-25 68-24 97 1l17 16v57l-20 20-20 20h-50l-20-20zm362-3-22-23v-51l18-16c28-25 72-26 96-1l16 15v59l-20 20-20 20h-47l-21-23zm1395 25c-26-28-21-32 38-32h55v8c0 16-36 42-57 42h-20l-16-18zm-742-262-6-10 15-6c8-3 20-3 26 1l10 6-5 10c-8 12-32 12-40-1zm2-36c-4-4-7-11-7-16v-8h52l-4 13c-5 14-31 21-41 11z"/></g><g fill="#626060" transform="matrix(.1 0 0 -.1 0 300)"><path d="M0 1500V0h3000v3000H0V1500zm1830 336c0-8-4-17-9-21-6-3-20-37-32-76s-31-81-41-94l-19-25-38-10-38-10-32 6-31 6 6 27c4 14 13 41 20 60l14 34 38 35 37 36-34-20c-61-35-101-102-101-170v-22l55-4 56-5 26-19c15-11 36-32 47-47l20-27v-98l-27-35-27-35-45-17-45-18-45 6c-25 4-59 14-76 22l-30 16-19 32-20 32v90l20 32 19 32 41 21c22 11 40 25 40 30 0 20-22 66-42 88-36 37-42 25-8-15l32-36-18-14c-19-14-52-17-78-7-9 3-32 28-51 55l-36 50 6 8c2 5 21 12 40 15l35 7 39-11 40-11 14-19 13-19 17 38c9 20 28 48 42 61l24 23 53 18 53 18 48 1h47v-14zM710 1535v-235H610v30l-32-20-33-20h-28c-16 0-44 7-63 16l-34 16-22 36-22 36v91l18 33 17 33 32 19 32 20h76l29-15 30-16v211h100v-235zm233 41 27-15v19h100v-280H970v33l-19-17-19-18-39-4-38-5-35 18-35 18-22 34-23 34v92l18 33 17 32 30 20 30 20h80l28-14zm1112-1 32-16 12-25 11-25v-209h-100v186l-12 12c-7 7-24 12-38 12s-31-5-38-12l-12-12v-186h-100v280h100v-21l22 15 22 16h68l33-15zm322-5c39-24 59-54 68-102l7-38h-212v-10c0-5 9-19 20-30l20-20h21c11 0 33 7 48 16l28 16 31-16 32-17-11-20-11-21-41-19-42-19h-33c-45 0-91 21-126 59l-29 31-5 52-4 53 24 34 23 34 35 18 35 19h90l32-20zm-1152-52c17-31 34-60 38-64l7-7 31 67 31 66h54c30 0 54-3 54-6s-48-98-106-210l-105-204h-55c-30 0-54 2-54 5s20 45 44 94l45 88-46 79c-24 43-54 96-64 117l-20 38 58-3 58-3 30-57zm1364-125 21-26-6-21c-8-27-41-56-65-56h-19l-20 20-20 20v59l22 15c12 9 32 16 44 16h23l20-27zm-1022-121 11-7 4-45 3-45-47-3-48-3v111h33c17 0 37-4 44-8zm83-24c0-18 4-39 9-47l9-14 16 6 16 6v83l13-4 12-5 3-24c2-14-2-37-7-52l-11-27h-56l-12 12-12 12v86h20v-32zm188 13 5-14-22 6-21 5-6-9-6-10 32-10 31-11-3-22-3-21h-75v10l1 10 24-3 25-3v8c0 5-13 14-30 20l-30 11v16c0 19 29 37 54 33l19-2 5-14zm72-36v-55h-20v110h20v-55zm94 23 26-33v67l13-4 12-5 3-51 3-52h-29l-21 28-20 27-1-27v-28h-30v110h9c5 0 21-15 35-32zm176 17v-15h-50v-20h50v-20h-50v-20h60v-20h-90v48c0 58 3 62 47 62h33v-15zm118-4 5-14-22 6-21 5-6-9-5-9 24-9c14-6 28-15 32-21l7-11-12-14-12-15h-68v30l30-6 30-6v6c0 4-11 11-25 16s-28 17-31 25l-6 15 13 16 12 15 25-3 25-3 5-14zm111 10 13-8-10-7c-6-3-17-3-25 0l-15 5-6-9-6-10 31-11 30-10-3-23-3-23-37-3-38-3v28l30-5c17-2 30-1 30 2 0 4-13 12-30 17l-30 11v17c0 34 38 52 69 32zm-844 214-25-24v-18c0-10 7-29 16-41l15-22h66l16 18 17 19v52l-26 20c-34 27-50 26-79-4zm-1059 4-26-20v-56l18-16 19-17h62l15 22c9 12 16 31 16 41v18l-25 24c-29 30-45 31-79 4zm359-4-25-24v-18c0-10 7-29 16-41l15-22h66l16 18 17 19v24c0 30-9 43-37 58-31 16-41 14-68-14zm1408 35-23-9v-31h100v9c0 10-40 42-50 40-3 0-15-4-27-9zm-753-275v-15h14c8 0 17 4 20 9l6 9-16 6c-22 9-24 8-24-9zm0-45v-10h40v20h-40v-10z"/></g><g fill="#403e3e" transform="matrix(.1 0 0 -.1 0 300)"><path d="M0 1500V0h3000v3000H0V1500zm1827 333c-21-66-58-158-72-179l-17-26-33-14c-19-8-50-14-70-14h-36l-6 15-5 16 17 45c9 25 29 59 43 77l27 32-31-23-32-22-15-32c-14-30-21-72-18-105l1-13h82l39-22 39-22 21-43 21-44-6-37c-6-41-29-76-68-105l-26-19-45-5c-25-3-62-2-82 1l-35 7-35 30-35 31-10 39-11 39 11 39 10 39 34 30c19 17 43 33 54 36l19 6-5 25-4 24-15-14-14-15h-71l-26 29c-33 34-72 81-72 86 0 8 66 25 95 25h32l37-25 36-24 14 32c18 43 63 83 111 101l40 15h59l58 1-5-17zM708 1538l2-238H600v21l-22-15-22-16h-83l-34 23-34 22-17 35-18 35v33c0 18 6 47 14 65l13 33 32 27 33 27h99l20-10 19-11v99c0 54 3 102 7 106s28 6 53 4l45-3 3-237zm235 41 21-12 4 12 4 11h98v-290H970v21l-30-16-29-15h-74l-34 21-33 21-14 26c-7 15-16 40-20 55l-7 28 12 41 11 42 33 33 33 33h103l22-11zm285-60 40-71 32 71 33 71h58c33 0 59-3 59-6 0-8-210-407-222-421l-10-13h-48c-25 0-50 3-53 6l-6 7 46 89 46 89-13 27c-6 15-34 66-61 114s-49 92-49 98v10h109l39-71zm685 59 5-13 13 13 13 12h87l29-15c16-8 34-24 40-34l10-20v-221h-100v179l-16 15c-20 21-43 20-66-1l-18-16v-177h-110v138c0 76 3 142 7 145 3 4 28 7 54 7h47l5-12zm473-8 33-21 16-43c9-24 15-52 13-62l-3-19-98-3-97-3v-13c0-26 74-36 108-15l18 11 32-16c38-20 39-26 10-54-31-28-71-42-121-42h-42l-35 19-35 18-22 33-23 33v92l20 33 20 32 32 20 33 20h108l33-20zm204-170 20-20v-44l-22-23-21-23h-54l-18 20-17 19v52l17 19 18 20h57l20-20zm-1013-132 10-13-1-40-1-40-47-3-48-3v111h78l9-12zm83-26c0-21 3-42 7-45l6-7 14 11 13 11v68h30v-36c0-41-13-69-35-78l-15-5-25 9-24 9-7 35c-3 20-4 43 0 51l5 15h31v-38zm185 23v-10l-30-5-30-6 33-11 32-12v-41l-24-10-24-9-21 6-21 5v30l30-7c36-8 40 2 5 15-14 5-28 17-31 25l-6 15 13 16 12 15 31-3 31-3v-10zm73-43 3-52h-41v111l18-3 17-3 3-53zm84 31 28-27v54h30v-110h-12c-6 0-22 10-35 22l-23 21v-43h-40v48c0 70 9 76 52 35zm188 12v-15l-32-1-33-2 28-4 27-4v-29h-50v-20h60v-20h-90v110h90v-15zm108-2 4-13-29-1-28-1 33-14 32-14v-40l-24-10-24-9-21 6-21 5v28l25-6 25-6v21l-22 3-23 3-3 24-4 24 14 8c7 5 24 8 37 7l24-3 5-12zm120 0 4-13-29-1h-28l25-12c46-21 50-40 16-62l-23-16-27 11-27 10 6 10 6 10 25-6 24-6v22h-39l-10 17-9 17 10 19 9 18 31-3 31-3 5-12zm-903 413c10-14 19-26 22-26 7 0-17 39-28 46l-11 6 17-26zm47-188c-15-18-17-39-9-70l7-28 26-6 25-7 24 11 24 11 7 26 6 25-16 25-16 25h-68l-10-12zm-1066-10c-21-30-20-54 4-78l20-20h49l15 16 16 15v65l-12 12-12 12h-65l-15-22zm366 10-12-12v-65l16-15 15-16h49l20 20c24 24 25 48 4 78l-15 22h-65l-12-12zm1398 18-12-16h94l-4 13-5 12-30 3-30 3-13-15zm-732-263c7-3 16-2 19 1 4 3-2 6-13 5l-19-1 13-5zm-8-43v-10h40v20h-40v-10z"/></g></g></svg>
